<?xml version="1.0" encoding="utf-8"?>
<!-- Generator: Adobe Illustrator 15.0.0, SVG Export Plug-In . SVG Version: 6.00 Build 0)  -->
<!DOCTYPE svg PUBLIC "-//W3C//DTD SVG 1.1//EN" "http://www.w3.org/Graphics/SVG/1.1/DTD/svg11.dtd">
<svg version="1.1" id="Layer_1" xmlns="http://www.w3.org/2000/svg" xmlns:xlink="http://www.w3.org/1999/xlink" x="0px" y="0px"
	 width="100px" height="100px" viewBox="0 0 100 100" enable-background="new 0 0 100 100" xml:space="preserve">
<path fill="#909090" d="M68.674,2.531c-5.79,0.137-11.476,2.561-15.615,7.067c-5.604,6.095-7.167,14.681-4.5,22.173
	c-1.18-0.158-2.362-0.246-3.538-0.26c-0.433-0.005-0.865-0.001-1.295,0.012c-10.334,0.329-20.084,6.094-25.166,15.672
	c-1.693,3.193-2.748,6.581-3.195,10c-0.185,1.422-0.261,2.85-0.239,4.27l-6.591,3.564l2.654,2.354l17.11,15.188l-3.864-26.137
	l-4.242,2.293c0.028-0.295,0.058-0.59,0.097-0.885c0.371-2.842,1.246-5.656,2.659-8.319c5.649-10.651,18.145-15.617,29.563-11.751
	c11.42,3.865,18.33,15.4,16.35,27.292C66.88,76.956,56.604,85.633,44.548,85.586H0v4.965h44.527h29.56v6.924l2.677-0.973L100,88.045
	l-25.913-9.432v6.971H61.001C67.6,81.18,72.376,74.176,73.759,65.879c1.16-6.961-0.239-13.834-3.563-19.593
	c8.629-0.404,16.424-5.912,19.519-14.27v-0.002c3.625-9.796-0.2-20.828-9.112-26.277c-3.343-2.043-7.055-3.094-10.767-3.201
	C69.447,2.523,69.061,2.521,68.674,2.531L68.674,2.531z M68.785,7.483c0.299-0.006,0.596-0.007,0.895,0.002
	c2.864,0.085,5.739,0.901,8.332,2.487c6.914,4.228,9.858,12.719,7.045,20.319c-2.813,7.6-10.574,12.13-18.576,10.84l-0.008,0.05
	c-3.129-3.447-7.097-6.187-11.697-7.869c-3.969-6.41-3.241-14.72,1.938-20.353C59.926,9.463,64.313,7.587,68.785,7.483z
	 M20.559,64.174l0.831,5.625l-4.252-3.775L20.559,64.174z M78.074,84.307l10.27,3.738l-10.27,3.738V84.307L78.074,84.307z"/>
</svg>
