<?xml version="1.0" encoding="utf-8"?>
<!-- Generator: Adobe Illustrator 15.0.0, SVG Export Plug-In . SVG Version: 6.00 Build 0)  -->
<!DOCTYPE svg PUBLIC "-//W3C//DTD SVG 1.1//EN" "http://www.w3.org/Graphics/SVG/1.1/DTD/svg11.dtd">
<svg version="1.1" id="Layer_1" xmlns="http://www.w3.org/2000/svg" xmlns:xlink="http://www.w3.org/1999/xlink" x="0px" y="0px"
	 width="100px" height="100px" viewBox="0 0 100 100" enable-background="new 0 0 100 100" xml:space="preserve">
<g>
	<path fill="#909090" d="M87.234,1.063H12.767C5.716,1.063,0,6.779,0,13.829v72.342c0,7.05,5.716,12.767,12.767,12.767h74.467
		c7.051,0,12.767-5.717,12.767-12.767V13.829C100,6.779,94.284,1.063,87.234,1.063z M95.745,86.171c0,4.699-3.81,8.511-8.511,8.511
		H12.767c-4.701,0-8.511-3.812-8.511-8.511V29.255h91.489V86.171z M95.745,25H4.256V13.829c0-4.699,3.81-8.511,8.511-8.511h74.467
		c4.701,0,8.512,3.812,8.512,8.511L95.745,25L95.745,25z"/>
	<circle fill="#909090" cx="13.83" cy="14.893" r="4.255"/>
	<circle fill="#909090" cx="24.468" cy="14.893" r="4.255"/>
	<circle fill="#909090" cx="35.106" cy="14.893" r="4.255"/>
	<rect x="10.639" y="38.83" fill="#909090" width="6.383" height="4.255"/>
	<rect x="22.16" y="38.83" fill="#909090" width="14.894" height="4.255"/>
	<rect x="41.139" y="38.83" fill="#909090" width="29.787" height="4.255"/>
	<rect x="74.469" y="38.83" fill="#909090" width="15.958" height="4.255"/>
	<rect x="10.639" y="52.84" fill="#909090" width="6.383" height="4.256"/>
	<rect x="22.16" y="52.84" fill="#909090" width="4.255" height="4.256"/>
	<rect x="30.139" y="52.84" fill="#909090" width="25.531" height="4.256"/>
	<rect x="59.575" y="52.84" fill="#909090" width="30.852" height="4.256"/>
	<rect x="10.639" y="66.841" fill="#909090" width="6.383" height="4.255"/>
	<rect x="22.16" y="66.841" fill="#909090" width="14.894" height="4.255"/>
	<rect x="41.139" y="66.841" fill="#909090" width="8.511" height="4.255"/>
	<rect x="53.191" y="66.841" fill="#909090" width="37.234" height="4.255"/>
	<rect x="10.639" y="80.852" fill="#909090" width="6.383" height="4.256"/>
	<rect x="22.16" y="80.852" fill="#909090" width="4.255" height="4.256"/>
	<rect x="30.139" y="80.852" fill="#909090" width="4.256" height="4.256"/>
	<rect x="47.873" y="80.852" fill="#909090" width="12.766" height="4.256"/>
	<rect x="64.895" y="80.852" fill="#909090" width="4.256" height="4.256"/>
	<rect x="71.275" y="80.852" fill="#909090" width="19.15" height="4.256"/>
	<rect x="38.299" y="80.852" fill="#909090" width="5.318" height="4.256"/>
</g>
</svg>
