<?xml version="1.0" encoding="utf-8"?>
<!-- Generator: Adobe Illustrator 15.0.0, SVG Export Plug-In . SVG Version: 6.00 Build 0)  -->
<!DOCTYPE svg PUBLIC "-//W3C//DTD SVG 1.1//EN" "http://www.w3.org/Graphics/SVG/1.1/DTD/svg11.dtd">
<svg version="1.1" id="Layer_1" xmlns="http://www.w3.org/2000/svg" xmlns:xlink="http://www.w3.org/1999/xlink" x="0px" y="0px"
	 width="100px" height="100px" viewBox="0 0 100 100" enable-background="new 0 0 100 100" xml:space="preserve">
<g>
	<g>
		<path fill="#909090" d="M2.5,2.5h25c1.381,0,2.5,1.12,2.5,2.501v90c0,1.38-1.119,2.499-2.5,2.499h-25c-1.38,0-2.5-1.119-2.5-2.499
			v-90C0,3.62,1.12,2.5,2.5,2.5z M6,7.501c-0.553,0-1,0.447-1,0.999v8.001C5,17.053,5.447,17.5,6,17.5h18c0.552,0,1-0.447,1-0.999
			V8.5c0-0.552-0.448-0.999-1-0.999H6z M6,22.5c-0.553,0-1,0.448-1,1v8c0,0.553,0.447,1,1,1h18c0.552,0,1-0.447,1-1v-8
			c0-0.552-0.448-1-1-1H6z M6,37.5c-0.553,0-1,0.448-1,1v8c0,0.553,0.447,1,1,1h18c0.552,0,1-0.447,1-1v-8c0-0.552-0.448-1-1-1H6z
			 M6,52.5c-0.553,0-1,0.447-1,1v8c0,0.553,0.447,0.999,1,0.999h18c0.552,0,1-0.446,1-0.999v-8c0-0.553-0.448-1-1-1H6z M6,67.5
			c-0.553,0-1,0.448-1,0.999V76.5c0,0.553,0.447,0.999,1,0.999h18c0.552,0,1-0.446,1-0.999v-8.001c0-0.551-0.448-0.999-1-0.999H6z
			 M6,82.5c-0.553,0-1,0.448-1,0.999V91.5c0,0.552,0.447,0.999,1,0.999h18c0.552,0,1-0.447,1-0.999v-8.001
			c0-0.551-0.448-0.999-1-0.999H6z"/>
		<path fill="#909090" d="M37.499,2.5h25.002C63.881,2.5,65,3.62,65,5.001v60c0,1.38-1.119,2.499-2.499,2.499H37.499
			c-1.38,0-2.499-1.119-2.499-2.499v-60C35,3.62,36.119,2.5,37.499,2.5z M41,7.501c-0.553,0-0.999,0.447-0.999,0.999v8.001
			c0,0.552,0.446,0.999,0.999,0.999h18c0.552,0,0.999-0.447,0.999-0.999V8.5c0-0.552-0.447-0.999-0.999-0.999H41z M41,22.5
			c-0.553,0-0.999,0.448-0.999,1v8c0,0.553,0.446,1,0.999,1h18c0.552,0,0.999-0.447,0.999-1v-8c0-0.552-0.447-1-0.999-1H41z
			 M41,37.5c-0.553,0-0.999,0.448-0.999,1v8c0,0.553,0.446,1,0.999,1h18c0.552,0,0.999-0.447,0.999-1v-8c0-0.552-0.447-1-0.999-1H41
			z M41,52.5c-0.553,0-0.999,0.447-0.999,1v8c0,0.553,0.446,0.999,0.999,0.999h18c0.552,0,0.999-0.446,0.999-0.999v-8
			c0-0.553-0.447-1-0.999-1H41z"/>
		<path fill="#909090" d="M72.5,2.5h24.998C98.88,2.5,100,3.62,100,5.001v75c0,1.38-1.12,2.499-2.502,2.499H72.5
			c-1.38,0-2.499-1.119-2.499-2.499v-75C70.001,3.62,71.12,2.5,72.5,2.5z M76.001,7.501c-0.554,0-1.002,0.447-1.002,0.999v8.001
			c0,0.552,0.448,0.999,1.002,0.999H94c0.551,0,0.999-0.447,0.999-0.999V8.5c0-0.552-0.448-0.999-0.999-0.999H76.001z M76.001,22.5
			c-0.554,0-1.002,0.448-1.002,1v8c0,0.553,0.448,1,1.002,1H94c0.551,0,0.999-0.447,0.999-1v-8c0-0.552-0.448-1-0.999-1H76.001z
			 M76.001,37.5c-0.554,0-1.002,0.448-1.002,1v8c0,0.553,0.448,1,1.002,1H94c0.551,0,0.999-0.447,0.999-1v-8
			c0-0.552-0.448-1-0.999-1H76.001z M76.001,52.5c-0.554,0-1.002,0.447-1.002,1v8c0,0.553,0.448,0.999,1.002,0.999H94
			c0.551,0,0.999-0.446,0.999-0.999v-8c0-0.553-0.448-1-0.999-1H76.001z M76.001,67.5c-0.554,0-1.002,0.448-1.002,0.999V76.5
			c0,0.553,0.448,0.999,1.002,0.999H94c0.551,0,0.999-0.446,0.999-0.999v-8.001c0-0.551-0.448-0.999-0.999-0.999H76.001z"/>
	</g>
</g>
</svg>
