<?xml version="1.0" encoding="utf-8"?>
<!-- Generator: Adobe Illustrator 15.0.0, SVG Export Plug-In . SVG Version: 6.00 Build 0)  -->
<!DOCTYPE svg PUBLIC "-//W3C//DTD SVG 1.1//EN" "http://www.w3.org/Graphics/SVG/1.1/DTD/svg11.dtd">
<svg version="1.1" id="Layer_1" xmlns="http://www.w3.org/2000/svg" xmlns:xlink="http://www.w3.org/1999/xlink" x="0px" y="0px"
	 width="100px" height="100px" viewBox="0 0 100 100" enable-background="new 0 0 100 100" xml:space="preserve">
<path fill="#909090" d="M49.999,53.251c3.72,0,6.745-3.025,6.745-6.744c0-3.719-3.025-6.744-6.745-6.744
	c-3.719,0-6.744,3.025-6.744,6.744C43.255,50.226,46.28,53.251,49.999,53.251z M49.999,42.772c2.06,0,3.735,1.675,3.735,3.734
	s-1.676,3.734-3.735,3.734c-2.059,0-3.734-1.675-3.734-3.734S47.94,42.772,49.999,42.772z M21.579,16.791
	c0-3.373,2.744-6.117,6.118-6.117h44.61c3.37,0,6.113,2.744,6.113,6.117V35.53h3.01V16.791c0-5.032-4.092-9.127-9.123-9.127H27.696
	c-5.033,0-9.128,4.095-9.128,9.127V35.53h3.01L21.579,16.791L21.579,16.791z M51.504,16.061V13.05h-3.01v3.011H51.504z
	 M78.421,83.221c0,3.365-2.744,6.105-6.114,6.105H27.696c-3.374,0-6.118-2.74-6.118-6.105V64.48h-3.01v18.74
	c0,5.024,4.095,9.115,9.128,9.115h44.609c5.032,0,9.125-4.091,9.125-9.115V64.48h-3.01L78.421,83.221L78.421,83.221z M50,67.225
	c9.497,0,17.225-7.728,17.225-17.226c0-9.497-7.728-17.224-17.225-17.224c-9.498,0-17.225,7.727-17.225,17.224
	C32.775,59.497,40.502,67.225,50,67.225z M50,64.214c-1.931,0-3.772-0.388-5.453-1.089c0.127-1.251,0.675-2.411,1.577-3.313
	c1.035-1.035,2.411-1.604,3.875-1.604c1.462,0,2.839,0.571,3.875,1.604c0.899,0.9,1.449,2.062,1.576,3.313
	C53.771,63.826,51.93,64.214,50,64.214z M50,35.786c7.838,0,14.214,6.376,14.214,14.213c0,4.774-2.366,9.006-5.985,11.585
	c-0.371-1.463-1.129-2.805-2.225-3.9c-1.605-1.603-3.738-2.485-6.004-2.485c-2.27,0-4.402,0.884-6.004,2.487
	c-1.095,1.094-1.853,2.436-2.225,3.897c-3.62-2.579-5.985-6.812-5.985-11.584C35.786,42.162,42.162,35.786,50,35.786z
	 M43.797,83.939v3.011H56.2v-3.011H43.797z M96.208,45.229h-3.267v3.01h3.267V45.229z M92.941,54.771h3.267v-3.011h-3.267V54.771z
	 M94.575,65.921c-0.95,0-1.843,0.245-2.62,0.677l-8.305-8.305h-8.803v-3.521h14.827v-3.011H74.85v-3.521h14.826v-3.01H74.85v-3.522
	h8.801l8.306-8.307c0.776,0.431,1.671,0.677,2.62,0.677c2.992,0,5.425-2.433,5.425-5.425c0-2.991-2.435-5.425-5.425-5.425
	c-2.991,0-5.426,2.434-5.426,5.425c0,0.95,0.246,1.844,0.678,2.621l-7.424,7.424H74.85v-20.26H25.151v20.26h-7.554l-7.424-7.425
	c0.431-0.776,0.677-1.67,0.677-2.619c0-2.991-2.435-5.426-5.426-5.426C2.433,23.227,0,25.661,0,28.652
	c0,2.991,2.433,5.424,5.424,5.424c0.949,0,1.842-0.246,2.62-0.677l8.305,8.307h8.802v3.522H10.325v3.01h14.827v3.522H10.325v3.01
	h14.827v3.522H16.35l-8.304,8.306c-0.778-0.432-1.671-0.678-2.621-0.678C2.433,65.921,0,68.354,0,71.346
	c0,2.991,2.433,5.426,5.424,5.426c2.991,0,5.426-2.435,5.426-5.426c0-0.949-0.246-1.844-0.677-2.621l7.424-7.422h7.554v20.262
	h49.697V61.303h7.555l7.424,7.422c-0.432,0.777-0.678,1.67-0.678,2.621c0,2.991,2.436,5.426,5.427,5.426S100,74.337,100,71.346
	C100,68.354,97.566,65.921,94.575,65.921z M94.575,26.236c1.331,0,2.413,1.084,2.413,2.416c0,1.331-1.082,2.414-2.413,2.414
	c-1.332,0-2.415-1.083-2.415-2.414C92.16,27.32,93.243,26.236,94.575,26.236z M5.424,31.066c-1.331,0-2.414-1.083-2.414-2.414
	c0-1.332,1.083-2.416,2.414-2.416c1.332,0,2.416,1.084,2.416,2.416C7.84,29.983,6.756,31.066,5.424,31.066z M5.424,73.762
	c-1.331,0-2.414-1.085-2.414-2.416c0-1.332,1.083-2.414,2.414-2.414c1.332,0,2.416,1.082,2.416,2.414
	C7.84,72.677,6.756,73.762,5.424,73.762z M71.839,78.553H28.162V21.446h43.677V78.553z M94.575,73.762
	c-1.332,0-2.415-1.085-2.415-2.416c0-1.332,1.083-2.414,2.415-2.414c1.331,0,2.413,1.082,2.413,2.414
	C96.988,72.677,95.906,73.762,94.575,73.762z M7.059,45.229H3.792v3.01h3.267V45.229z M3.792,54.771h3.267v-3.011H3.792V54.771z"/>
</svg>
