<?xml version="1.0" encoding="utf-8"?>
<!-- Generator: Adobe Illustrator 15.0.0, SVG Export Plug-In . SVG Version: 6.00 Build 0)  -->
<!DOCTYPE svg PUBLIC "-//W3C//DTD SVG 1.1//EN" "http://www.w3.org/Graphics/SVG/1.1/DTD/svg11.dtd">
<svg version="1.1" id="Layer_1" xmlns="http://www.w3.org/2000/svg" xmlns:xlink="http://www.w3.org/1999/xlink" x="0px" y="0px"
	 width="100px" height="100px" viewBox="0 0 100 100" enable-background="new 0 0 100 100" xml:space="preserve">
<g>
	<path fill="#909090" d="M65.348,80.583c5.609-1.604,11.148-3.418,16.611-5.444c-7.23-1.867-14.541-3.463-21.911-4.775
		c-9.685,2.377-19.541,4.158-29.526,5.335C42.244,76.611,53.881,78.244,65.348,80.583z"/>
	<path fill="#909090" d="M65.348,55.238c5.609-1.603,11.148-3.418,16.611-5.443c-7.23-1.871-14.541-3.464-21.911-4.778
		c-9.685,2.377-19.541,4.16-29.526,5.336C42.244,51.268,53.881,52.898,65.348,55.238z"/>
	<path fill="#909090" d="M65.348,29.893c5.609-1.6,11.148-3.414,16.611-5.443c-7.23-1.871-14.541-3.463-21.911-4.776
		c-9.685,2.376-19.541,4.157-29.526,5.334C42.244,25.922,53.881,27.556,65.348,29.893z"/>
	<path fill="#909090" d="M86.512,90.961H74.863C61.585,95.139,47.929,98.157,34.014,100h52.498c2.491,0,4.521-2.025,4.521-4.521
		C91.029,92.988,89.003,90.961,86.512,90.961z"/>
	<path fill="#909090" d="M71.657,90.057c0.976-0.293,1.95-0.595,2.924-0.898c4.265-1.352,8.489-2.815,12.671-4.4
		c1.217-0.463,2.158-1.351,2.648-2.503c0.467-1.091,0.47-2.293,0.01-3.382c-0.732-1.727-2.43-2.841-4.322-2.841
		c-0.57,0-1.134,0.103-1.672,0.308C67.561,82.525,50.508,86.813,33.02,89.157c-2.561,0.342-5.13,0.643-7.709,0.897
		c-3.649,0.368-7.316,0.65-10.997,0.85c-0.242,0.013-0.482,0.029-0.726,0.039c-0.307,0.018-0.606,0.063-0.903,0.13
		c-1.032,0.231-1.965,0.757-2.639,1.515c-0.763,0.855-1.143,1.939-1.07,3.055c0.125,1.912,1.623,3.533,3.593,4.123
		c0.519,0.153,1.07,0.232,1.64,0.229c0.091,0,0.182,0.003,0.275-0.002c0.584-0.032,1.168-0.063,1.752-0.103
		c17.868-1.072,35.401-4.064,52.342-8.931C69.605,90.667,70.634,90.367,71.657,90.057z"/>
	<path fill="#909090" d="M14.484,74.646c25.138-1.328,49.622-6.455,72.768-15.235c1.217-0.462,2.158-1.351,2.648-2.499
		c0.467-1.096,0.47-2.297,0.01-3.387c-0.732-1.725-2.43-2.838-4.322-2.838c-0.57,0-1.134,0.104-1.672,0.307
		c-22.364,8.459-46.027,13.373-70.328,14.607c-1.385,0.068-2.675,0.668-3.542,1.64c-0.763,0.856-1.143,1.942-1.07,3.058
		C9.137,72.792,11.646,74.805,14.484,74.646z"/>
	<path fill="#909090" d="M14.484,49.305c25.138-1.331,49.622-6.455,72.768-15.237c1.217-0.46,2.158-1.35,2.648-2.5
		c0.467-1.092,0.47-2.295,0.01-3.383c-0.732-1.726-2.43-2.84-4.322-2.84c-0.57,0-1.134,0.102-1.672,0.304
		c-22.364,8.462-46.027,13.375-70.328,14.608c-1.385,0.071-2.675,0.669-3.542,1.643c-0.763,0.856-1.143,1.94-1.07,3.054
		C9.137,47.448,11.646,49.461,14.484,49.305z"/>
	<path fill="#909090" d="M14.484,23.961c25.138-1.328,49.622-6.455,72.768-15.237c1.217-0.46,2.158-1.348,2.648-2.5
		c0.467-1.092,0.47-2.295,0.01-3.383C89.178,1.114,87.48,0,85.588,0c-0.57,0-1.134,0.102-1.672,0.307
		C61.552,8.767,37.889,13.68,13.588,14.913c-1.385,0.071-2.675,0.67-3.542,1.645c-0.763,0.855-1.143,1.941-1.07,3.056
		C9.137,22.105,11.646,24.119,14.484,23.961z"/>
</g>
</svg>
