<?xml version="1.0" encoding="utf-8"?>
<!-- Generator: Adobe Illustrator 15.0.0, SVG Export Plug-In . SVG Version: 6.00 Build 0)  -->
<!DOCTYPE svg PUBLIC "-//W3C//DTD SVG 1.1//EN" "http://www.w3.org/Graphics/SVG/1.1/DTD/svg11.dtd">
<svg version="1.1" id="Layer_1" xmlns="http://www.w3.org/2000/svg" xmlns:xlink="http://www.w3.org/1999/xlink" x="0px" y="0px"
	 width="100px" height="100px" viewBox="0 0 100 100" enable-background="new 0 0 100 100" xml:space="preserve">
<path fill="#909090" d="M97.352,78.439c-4.188,0-6.151-0.844-8.424-1.821c-1.275-0.548-2.641-1.136-4.396-1.571
	c-0.192-7.083-5.498-12.91-12.353-13.913l-3.271-34.142H97.24c1.462,0,2.646-1.186,2.646-2.648c0-1.462-1.186-2.647-2.646-2.647
	H68.4l-0.291-3.037c-0.131-1.358-1.271-2.396-2.637-2.396H35.935c-1.362,0-2.503,1.034-2.636,2.391l-0.297,3.042H4.485
	c-1.463,0-2.648,1.186-2.648,2.647c0,1.463,1.186,2.648,2.648,2.648h27.999l-3.588,36.676c-1.53-0.627-3.179-0.957-4.858-0.957
	c-3.924,0-7.816,2.085-10.157,5.441c-1.633,2.343-2.355,5.051-2.138,7.869c-2.157-0.863-4.8-1.655-9.095-1.655
	C1.186,74.366,0,75.552,0,77.014c0,1.463,1.186,2.648,2.648,2.648c4.189,0,6.152,0.845,8.424,1.822
	c2.454,1.056,5.236,2.252,10.517,2.252c5.28,0,8.063-1.196,10.517-2.252c2.272-0.979,4.234-1.822,8.423-1.822
	s6.151,0.845,8.424,1.822c2.454,1.055,5.236,2.252,10.518,2.252c5.28,0,8.063-1.197,10.518-2.252
	c2.271-0.979,4.234-1.822,8.424-1.822s6.152,0.844,8.424,1.822c2.455,1.055,5.236,2.252,10.518,2.252
	c1.463,0,2.648-1.187,2.648-2.648S98.814,78.439,97.352,78.439z M66.879,61.342c-0.73,0.166-1.449,0.385-2.146,0.66
	c-1.48-1.039-3.11-1.837-4.825-2.371l-1.841-38.07h5L66.879,61.342z M48.633,21.56h4.131l1.803,37.284
	c-2.817,0.026-5.559,0.733-8.008,2.037L48.633,21.56z M43.33,21.56l-2.099,39.749c-0.61-0.082-1.228-0.125-1.847-0.125
	c-1.736,0-3.432,0.322-5.014,0.928l3.967-40.551H43.33z M67.893,76.618c-2.271,0.978-4.233,1.821-8.424,1.821
	c-4.189,0-6.15-0.844-8.424-1.82c-2.454-1.057-5.236-2.254-10.517-2.254c-5.281,0-8.062,1.197-10.517,2.254
	c-2.271,0.977-4.233,1.82-8.423,1.82c-1.613,0-2.896-0.125-3.993-0.334c-0.012-0.039-0.021-0.076-0.036-0.115
	c-1.166-3.164-0.281-5.449,0.667-6.809c1.345-1.929,3.626-3.175,5.812-3.175c1.81,0,3.561,0.653,4.93,1.839
	c0.534,0.463,1.231,0.693,1.934,0.639c0.704-0.053,1.357-0.385,1.815-0.922c1.67-1.959,4.101-3.082,6.667-3.082
	c1.478,0,2.94,0.375,4.226,1.086c0.985,0.543,2.207,0.404,3.046-0.346c2.224-1.988,5.092-3.085,8.074-3.085
	c2.908,0,5.723,1.05,7.924,2.953c0.838,0.726,2.039,0.853,3.01,0.317c1.344-0.74,2.87-1.133,4.413-1.133
	c4.692,0,8.571,3.547,9.103,8.101c-0.25-0.006-0.506-0.01-0.77-0.01C73.129,74.365,70.348,75.563,67.893,76.618z"/>
</svg>
