<?xml version="1.0" encoding="utf-8"?>
<!-- Generator: Adobe Illustrator 15.0.0, SVG Export Plug-In . SVG Version: 6.00 Build 0)  -->
<!DOCTYPE svg PUBLIC "-//W3C//DTD SVG 1.1//EN" "http://www.w3.org/Graphics/SVG/1.1/DTD/svg11.dtd">
<svg version="1.1" id="Layer_1" xmlns="http://www.w3.org/2000/svg" xmlns:xlink="http://www.w3.org/1999/xlink" x="0px" y="0px"
	 width="150px" height="313.5px" viewBox="0 0 150 313.5" enable-background="new 0 0 150 313.5" xml:space="preserve">
<g>
	<path d="M114.411,4.832c-1.108-1.109-2.911-1.109-4.021,0l-35.353,35.42L39.617,4.832c-1.109-1.109-2.912-1.109-4.021,0
		c-1.109,1.109-1.109,2.911,0,4.021l37.362,37.362c0.555,0.555,1.248,0.832,2.01,0.832c0.693,0,1.456-0.277,2.011-0.832
		l37.362-37.362C115.521,7.743,115.521,5.94,114.411,4.832z"/>
</g>
<g>
	<path fill="#FFFFFF" d="M114.411,126.559c-1.108-1.109-2.911-1.109-4.021,0L75.038,161.98l-35.421-35.421
		c-1.109-1.109-2.912-1.109-4.021,0c-1.109,1.109-1.109,2.911,0,4.021l37.362,37.361c0.555,0.555,1.248,0.832,2.01,0.832
		c0.693,0,1.456-0.277,2.011-0.832l37.362-37.361C115.521,129.47,115.521,127.668,114.411,126.559z"/>
</g>
<g>
	<g>
		<path fill="#FFFFFF" d="M114.342,308.648L76.98,271.285c-0.556-0.555-1.316-0.83-2.011-0.83c-0.762,0-1.455,0.275-2.01,0.83
			l-37.362,37.363c-1.108,1.107-1.108,2.912,0,4.02c1.108,1.109,2.911,1.109,4.021,0l35.423-35.42l35.352,35.42
			c1.109,1.109,2.912,1.109,4.021,0C115.521,311.561,115.521,309.758,114.342,308.648z"/>
	</g>
	<g>
		<path fill="#FFFFFF" d="M114.411,233.286c-1.108-1.108-2.911-1.108-4.021,0l-35.353,35.421l-35.423-35.421
			c-1.108-1.108-2.912-1.108-4.021,0c-1.109,1.108-1.108,2.909,0,4.021l37.362,37.362c0.555,0.556,1.248,0.832,2.01,0.832
			c0.693,0,1.456-0.276,2.011-0.832l37.362-37.362C115.521,236.195,115.521,234.395,114.411,233.286z"/>
	</g>
</g>
</svg>
